<svg enable-background="new 0 0 2467.1 1586.4" height="54" viewBox="0 0 160 54" width="160" xmlns="http://www.w3.org/2000/svg"><rect fill="#888" height="54" rx="4.265" width="160"/><path d="m88.659 7.002h-49.266c-2.915 0-5.378-.184-9.23 2.596l-18.743 12.752c-4.549 3.292-4.571 6.001 0 9.302l18.743 12.751c3.652 2.646 6.299 2.597 9.23 2.597h15.686 33.58c2.931-.057 5.394-1.784 5.34-3.923v-32.21c-.012-2.134-2.409-3.865-5.34-3.865z" fill="#3969bb" transform="matrix(-1 0 0 -1 101.999867 53.999547)"/><g fill="#fff" transform="matrix(1.465202 0 0 1.465202 -4.582436 -7.553126)"><path d="m18.316 23.086h4.632v6.052c-.75.245-1.459.415-2.121.514-.663.098-1.341.148-2.033.148-1.764 0-3.106-.517-4.035-1.554-.929-1.034-1.395-2.519-1.395-4.457 0-1.886.538-3.356 1.617-4.41 1.078-1.054 2.573-1.579 4.481-1.579 1.2 0 2.357.239 3.469.718l-.823 1.979c-.85-.425-1.737-.637-2.657-.637-1.071 0-1.932.358-2.572 1.077-.645.718-.968 1.685-.968 2.899 0 1.267.26 2.233.78 2.904.516.667 1.271.999 2.262.999.517 0 1.041-.052 1.572-.158v-2.435h-2.209zm11.912 6.555h-2.474v-9.614h-3.173v-2.06h8.816v2.06h-3.169zm9.908 0-2.811-9.158h-.072c.103 1.863.154 3.105.154 3.728v5.43h-2.213v-11.674h3.368l2.764 8.927h.048l2.934-8.927h3.369v11.674h-2.308v-5.525c0-.261 0-.561.009-.903.009-.341.048-1.246.112-2.716h-.074l-3.011 9.144z"/><path d="m88.883 31.898h-3.811l-4.147-6.67-1.417 1.018v5.652h-3.357v-15.83h3.357v7.242l1.318-1.861 4.293-5.381h3.724l-5.523 7.006zm1.589-15.233c0-1.075.6-1.614 1.8-1.614 1.199 0 1.798.539 1.798 1.614 0 .512-.148.91-.45 1.196-.297.284-.749.429-1.348.429-1.2 0-1.8-.543-1.8-1.625zm3.449 15.233h-3.302v-12.104h3.302zm8.563-2.413c.578 0 1.271-.128 2.077-.38v2.456c-.82.37-1.831.552-3.031.552-1.324 0-2.28-.333-2.885-1.001-.602-.667-.902-1.668-.902-3.003v-5.835h-1.585v-1.399l1.823-1.103.949-2.557h2.115v2.579h3.388v2.48h-3.388v5.835c0 .467.129.815.393 1.041.264.222.614.335 1.046.335z"/></g></svg>