<svg enable-background="new 0 0 2467.1 1586.4" height="64" viewBox="0 0 64 64" width="64" xmlns="http://www.w3.org/2000/svg"><rect fill="#5f6368" height="64" rx="4.265" width="64"/><path d="m55.894 6.926h-28.641c-1.695 0-3.126-.148-5.369 2.087l-10.897 10.249c-2.644 2.646-2.655 4.823 0 7.477l10.897 10.249c2.126 2.126 3.664 2.087 5.369 2.087h9.122 19.519c1.705-.046 3.136-1.434 3.106-3.153v-25.89c-.009-1.714-1.401-3.106-3.106-3.106z" fill="#3969bb" transform="matrix(-1 0 0 -1 68.000334 45.999025)"/><g fill="#fff"><path d="m16.952 23.086h4.632v6.052c-.75.245-1.459.415-2.121.514-.663.098-1.341.148-2.033.148-1.764 0-3.106-.517-4.035-1.554-.929-1.034-1.395-2.519-1.395-4.457 0-1.886.538-3.356 1.617-4.41 1.078-1.054 2.573-1.579 4.481-1.579 1.2 0 2.357.239 3.469.718l-.823 1.979c-.85-.425-1.737-.637-2.657-.637-1.071 0-1.932.358-2.572 1.077-.645.718-.968 1.685-.968 2.899 0 1.267.26 2.233.78 2.904.516.667 1.271.999 2.262.999.517 0 1.041-.052 1.572-.158v-2.435h-2.209zm11.912 6.555h-2.474v-9.614h-3.173v-2.06h8.816v2.06h-3.169zm9.908 0-2.811-9.158h-.072c.103 1.863.154 3.105.154 3.728v5.43h-2.213v-11.674h3.368l2.764 8.927h.048l2.934-8.927h3.369v11.674h-2.308v-5.525c0-.261 0-.561.009-.903.009-.341.048-1.246.112-2.716h-.074l-3.011 9.144z"/><path d="m28.524 58.859h-3.354l-3.649-5.869-1.247.895v4.974h-2.954v-13.93h2.954v6.373l1.16-1.638 3.777-4.735h3.277l-4.86 6.165zm1.398-13.405c0-.946.528-1.42 1.584-1.42 1.055 0 1.582.474 1.582 1.42 0 .451-.13.801-.396 1.053-.261.249-.659.377-1.186.377-1.056 0-1.584-.478-1.584-1.43zm3.035 13.405h-2.906v-10.652h2.906zm7.536-2.123c.508 0 1.118-.113 1.827-.335v2.162c-.722.325-1.611.486-2.667.486-1.165 0-2.007-.294-2.539-.881-.53-.588-.794-1.469-.794-2.643v-5.135h-1.394v-1.231l1.604-.971.835-2.25h1.861v2.269h2.982v2.183h-2.982v5.135c0 .411.113.717.346.916.232.195.54.295.921.295z"/></g></svg>