<svg viewBox="0 0 170.19 54.77" xmlns="http://www.w3.org/2000/svg"><path d="m137 19.07h-14.25v23.72h14.25s4.74.16 4.75-4.74v-14.24c-.03-4.9-4.75-4.74-4.75-4.74zm0 19h-9.49v-1.54-12.72h9.49zm11.86-17.29v20.33a1.69 1.69 0 0 1 -1.69 1.68h-1.36a1.69 1.69 0 0 1 -1.69-1.68v-20.35a1.69 1.69 0 0 1 1.69-1.69h1.36a1.69 1.69 0 0 1 1.67 1.69zm-30.15-1.69h-15.6a1.69 1.69 0 0 0 -1.69 1.69v20.32a1.69 1.69 0 0 0 1 1.56 1.59 1.59 0 0 0 .66.13h15.6a1.69 1.69 0 0 0 1.69-1.68v-1.37a1.69 1.69 0 0 0 -1.69-1.69h-12.54v-3.88h7.8a1.69 1.69 0 0 0 1.69-1.69v-1.37a1.84 1.84 0 0 0 0-.33s0-.08 0-.12a1.27 1.27 0 0 0 -.06-.18c0-.05 0-.1-.07-.16l-.07-.11a.7.7 0 0 0 -.13-.17v-.07l-.3-.17-.23-.15-.28-.11-.3-.07h-.2-7.8v-5.6h12.55a1.69 1.69 0 0 0 1.69-1.69v-1.42a1.69 1.69 0 0 0 -1.74-1.69zm-19.71 3.42a2.07 2.07 0 0 1 0-.22c0-.17-.06-.34-.1-.5s0-.15-.07-.22-.09-.28-.15-.41l-.09-.2c0-.06-.05-.12-.08-.17-1.26-2.29-4.15-2.21-4.15-2.21h-14.66s-4.7-.16-4.7 4.75v17.29a1.69 1.69 0 0 0 1.69 1.69h1.31a1.69 1.69 0 0 0 1.68-1.69v-17.29h4.91v12.48a1.69 1.69 0 0 0 1.71 1.69h1.36a1.69 1.69 0 0 0 1.69-1.69v-12.48h4.91v17.29a1.69 1.69 0 0 0 1.74 1.69h1.36a1.69 1.69 0 0 0 1.64-1.69l.11-17.29h-.11a7.08 7.08 0 0 0 0-.82zm71.18.49a1.43 1.43 0 0 0 0-.22 3.44 3.44 0 0 0 -.09-.5c0-.08 0-.15-.07-.22s-.1-.28-.15-.41l-.09-.2-.08-.18c-1.26-2.3-4.15-2.21-4.15-2.21h-9.55s-4.74-.16-4.74 4.74v17.3a1.69 1.69 0 0 0 1.69 1.68h1.36a1.69 1.69 0 0 0 1.69-1.67v-17.3h9.49v5.6h-7.8a1.7 1.7 0 0 0 -1.69 1.7v1.37a1.69 1.69 0 0 0 1.69 1.69h7.8v6.94a1.69 1.69 0 0 0 1.69 1.68h1.36a1.69 1.69 0 0 0 1.69-1.68v-17.3a6.77 6.77 0 0 0 -.09-.81z" fill="#999"/><g fill="#b7d988"><path d="m46.35 0s-8.43-.28-8.43 8.43h25.46c1.21-.02-.18-8.43-.18-8.43z"/><path d="m63.2 0s8.42-.28 8.42 8.43h-25.45c-1.17-.02.18-8.43.18-8.43z"/><path d="m71.62 8.43h-8.42v25.37.08c0 1.21 8.42-.17 8.42-.17z"/></g><path d="m70.6 3.91a55 55 0 0 0 -9.51 4.52h2.11v9.94h-13.85a3 3 0 0 0 -3 3v2.43a3 3 0 0 0 3 3h8.12a2.07 2.07 0 0 0 .25 0h5.48v4.87s0 0 0 .07v7.38a3 3 0 0 0 3 3h2.42a3 3 0 0 0 3-3v-30.69a9.33 9.33 0 0 0 -1.02-4.52z" fill="#89c233"/><path d="m46.35 31v-22.57h-8.43v25.37.08 5.25a3 3 0 0 0 3 3h2.43a3 3 0 0 0 3-3z" fill="#b7d988"/><path d="m33.71 3a3 3 0 0 0 -3-3h-8.12c-1.65 0 .73 1.35.73 3v2.43c0 1.65-1.65 3 0 3h7.39a3 3 0 0 0 3-3z" fill="#3878c0"/><rect fill="#f9de82" height="10.38" rx="3" width="8.43" x="25.28" y="12.64"/><path d="m18.07 42.13a3 3 0 0 0 3-3v-8.13c0-1.65-1.35.73-3 .73h-2.43c-1.65 0-3-1.65-3 0v7.38a3 3 0 0 0 3 3z" fill="#3878c0"/><rect fill="#f8c52c" height="8.43" rx="3" width="29.19" x="29.8" y="46.34"/><path d="m21.07 8.43s.28-8.43-8.43-8.43v8.43 25.37.08c0 1.21 8.43-.17 8.43-.17z" fill="#81a9d6"/><path d="m21.07 8.43s.28-8.43-8.43-8.43v8.43 25.37.08c0 1.21 8.43-.17 8.43-.17z" fill="#81a9d6"/><path d="m25.28 18.37h8.43v27.4.08c0 1.31-.47 8.91-8.43 8.91v-9.1z" fill="#f9de82"/><path d="m33.71 46.35s-8.43-.29-8.43 8.42h25.46c1.21 0-.18-8.43-.18-8.43h-16.85z" fill="#f9cc46"/><path d="m33.71 54.77h17c1.21 0-.18-8.43-.18-8.43h-16.82v-23.81c-5.06 7.77-8.43 18.21-8.43 32.24z" fill="#f8c52c"/><path d="m40.92 42.13h2.43a3 3 0 0 0 3-3v-5.42-11.18a60.42 60.42 0 0 0 -7.57 18.69 3 3 0 0 0 2.14.91z" fill="#89c233"/><path d="m17.38 36.57c2-.2 3.69-2.86 3.69-2.86v-23.94a45 45 0 0 0 -8.43 7.28v16.75.08c.01.64 2.52 2.92 4.74 2.69z" fill="#3878c0"/><path d="m0 5.43a3 3 0 0 0 3 3h8.12c1.65 0-.74-1.35-.74-3v-2.43c0-1.65 1.65-3 0-3h-7.38a3 3 0 0 0 -3 3z" fill="#81a9d6"/><path d="m33.71 3a3 3 0 0 0 -3-3h-22.28v8.43h14.74a66.41 66.41 0 0 1 10.54-5z" fill="#81a9d6"/><path d="m49 18.41a3 3 0 0 0 -2.65 3v.92q1.22-2.01 2.65-3.92z" fill="#b7d988"/><g fill="#999"><path d="m156 23.82h9.49v3.89h4.36.38v-3.89a6.91 6.91 0 0 0 -.05-.81 1.43 1.43 0 0 0 0-.22 3.71 3.71 0 0 0 -.09-.5c0-.08 0-.15-.07-.22s-.1-.28-.15-.41l-.09-.2-.08-.18c-1.26-2.3-4.15-2.21-4.15-2.21h-9.55s-4.74-.16-4.74 4.74v4.19l4.74-.14z"/><path d="m127.49 23.82h9.51v4.87l4.75-.28v-4.6c0-4.9-4.75-4.74-4.75-4.74h-14.25v10.74l4.74-.43z"/><path d="m115.5 30.48c0-.05 0-.1-.07-.16l-.07-.11a.7.7 0 0 0 -.13-.17v-.07l-.23-.17-.23-.15-.28-.11-.3-.07h-.2-7.8v-5.65h12.55a1.69 1.69 0 0 0 1.69-1.68v-1.38a1.69 1.69 0 0 0 -1.69-1.69h-15.6a1.69 1.69 0 0 0 -1.69 1.69v11.8c4.38-.74 9.11-1.4 14.13-2a.38.38 0 0 0 -.08-.08z"/><path d="m148.84 20.76a1.69 1.69 0 0 0 -1.69-1.69h-1.36a1.69 1.69 0 0 0 -1.69 1.69v7.54c1.56-.08 3.15-.15 4.74-.21z"/><path d="m79.7 23.33h4.91v12.48a1.84 1.84 0 0 0 0 .33q2.23-.62 4.71-1.2v-11.61h4.91v10.54c1.54-.32 3.14-.62 4.79-.91l.06-9.63h-.08a7.08 7.08 0 0 0 -.05-.82 2.07 2.07 0 0 1 0-.22c0-.17-.06-.34-.1-.5s0-.15-.07-.22-.09-.28-.15-.41l-.09-.2c0-.05-.05-.12-.08-.17-1.26-2.29-4.15-2.21-4.15-2.21h-14.61s-4.7-.16-4.7 4.75v16.19c1.4-.64 3-1.26 4.74-1.86z"/></g><g fill="#666"><path d="m165.45 27.71v1.7h-7.8a1.7 1.7 0 0 0 -1.69 1.7v1.37a1.69 1.69 0 0 0 1.69 1.69h7.8v6.94a1.69 1.69 0 0 0 1.69 1.68h1.36a1.69 1.69 0 0 0 1.69-1.68v-13.42h-.38z" opacity=".5"/><path d="m152.91 42.79h1.36a1.69 1.69 0 0 0 1.73-1.68v-13.25l-4.74.14v13.11a1.69 1.69 0 0 0 1.65 1.68z" opacity=".5"/><path d="m102.43 42.66a1.59 1.59 0 0 0 .66.14h15.6a1.69 1.69 0 0 0 1.69-1.69v-1.37a1.69 1.69 0 0 0 -1.69-1.69h-12.55v-3.88h7.8a1.69 1.69 0 0 0 1.69-1.69v-1.37a1.84 1.84 0 0 0 0-.33s0-.08 0-.12v-.08c-5 .58-9.75 1.24-14.13 2v8.52a1.69 1.69 0 0 0 .93 1.56z" opacity=".5"/><path d="m94.26 40.62a1.69 1.69 0 0 0 1.74 1.69h1.36a1.69 1.69 0 0 0 1.64-1.69v-7.66c-1.65.29-3.25.59-4.79.91z" opacity=".5"/><path d="m86.3 37.5h1.36a1.69 1.69 0 0 0 1.69-1.69v-.87q-2.47.59-4.71 1.2a1.7 1.7 0 0 0 1.66 1.36z" opacity=".5"/><path d="m145.79 42.8h1.36a1.69 1.69 0 0 0 1.69-1.69v-13c-1.59.06-3.18.13-4.74.21v12.79a1.69 1.69 0 0 0 1.69 1.69z" opacity=".5"/><path d="m76.65 42.31h1.35a1.69 1.69 0 0 0 1.68-1.69v-3c-1.75.6-3.34 1.22-4.74 1.86v1.1a1.69 1.69 0 0 0 1.71 1.73z" opacity=".5"/><path d="m137 42.79s4.74.16 4.75-4.74v-9.64l-4.75.28v9.36h-9.49v-1.52-7.15l-4.74.43v13z" opacity=".5"/></g></svg>